<mxfile host="app.diagrams.net" modified="2024-01-16T16:31:22.597Z" agent="Mozilla/5.0 (Windows NT 10.0; Win64; x64) AppleWebKit/537.36 (KHTML, like Gecko) Chrome/120.0.0.0 Safari/537.36" etag="LfACvENsBhlUPHb45-YH" version="22.1.19" type="github">
  <diagram id="C5RBs43oDa-KdzZeNtuy" name="Page-1">
    <mxGraphModel dx="794" dy="446" grid="1" gridSize="10" guides="1" tooltips="1" connect="1" arrows="1" fold="1" page="1" pageScale="1" pageWidth="827" pageHeight="1169" math="0" shadow="0">
      <root>
        <mxCell id="WIyWlLk6GJQsqaUBKTNV-0" />
        <mxCell id="WIyWlLk6GJQsqaUBKTNV-1" parent="WIyWlLk6GJQsqaUBKTNV-0" />
        <mxCell id="WIyWlLk6GJQsqaUBKTNV-3" value="Selesai" style="rounded=1;whiteSpace=wrap;html=1;fontSize=10;glass=0;strokeWidth=1;shadow=0;" parent="WIyWlLk6GJQsqaUBKTNV-1" vertex="1">
          <mxGeometry x="160" y="533" width="130" height="40" as="geometry" />
        </mxCell>
        <mxCell id="4E5PTwEwFtYt5vo8ySH1-13" value="" style="edgeStyle=orthogonalEdgeStyle;rounded=0;orthogonalLoop=1;jettySize=auto;html=1;" edge="1" parent="WIyWlLk6GJQsqaUBKTNV-1" source="4E5PTwEwFtYt5vo8ySH1-0" target="4E5PTwEwFtYt5vo8ySH1-4">
          <mxGeometry relative="1" as="geometry" />
        </mxCell>
        <mxCell id="4E5PTwEwFtYt5vo8ySH1-0" value="&lt;font style=&quot;font-size: 10px;&quot;&gt;Input Data Training&lt;/font&gt;" style="shape=parallelogram;perimeter=parallelogramPerimeter;whiteSpace=wrap;html=1;fixedSize=1;fontSize=10;" vertex="1" parent="WIyWlLk6GJQsqaUBKTNV-1">
          <mxGeometry x="160" y="160" width="130" height="40" as="geometry" />
        </mxCell>
        <mxCell id="4E5PTwEwFtYt5vo8ySH1-16" value="" style="edgeStyle=orthogonalEdgeStyle;rounded=0;orthogonalLoop=1;jettySize=auto;html=1;" edge="1" parent="WIyWlLk6GJQsqaUBKTNV-1" source="4E5PTwEwFtYt5vo8ySH1-3" target="4E5PTwEwFtYt5vo8ySH1-6">
          <mxGeometry relative="1" as="geometry" />
        </mxCell>
        <mxCell id="4E5PTwEwFtYt5vo8ySH1-3" value="Proses Testing SVM" style="rounded=0;whiteSpace=wrap;html=1;fontSize=10;" vertex="1" parent="WIyWlLk6GJQsqaUBKTNV-1">
          <mxGeometry x="165" y="395" width="120" height="30" as="geometry" />
        </mxCell>
        <mxCell id="4E5PTwEwFtYt5vo8ySH1-14" value="" style="edgeStyle=orthogonalEdgeStyle;rounded=0;orthogonalLoop=1;jettySize=auto;html=1;" edge="1" parent="WIyWlLk6GJQsqaUBKTNV-1" source="4E5PTwEwFtYt5vo8ySH1-4" target="4E5PTwEwFtYt5vo8ySH1-5">
          <mxGeometry relative="1" as="geometry" />
        </mxCell>
        <mxCell id="4E5PTwEwFtYt5vo8ySH1-4" value="Proses Penerapan fungsi &lt;i style=&quot;font-size: 10px;&quot;&gt;Kernel SVM&lt;/i&gt;" style="rounded=0;whiteSpace=wrap;html=1;fontSize=10;" vertex="1" parent="WIyWlLk6GJQsqaUBKTNV-1">
          <mxGeometry x="165" y="235" width="120" height="46" as="geometry" />
        </mxCell>
        <mxCell id="4E5PTwEwFtYt5vo8ySH1-15" value="" style="edgeStyle=orthogonalEdgeStyle;rounded=0;orthogonalLoop=1;jettySize=auto;html=1;" edge="1" parent="WIyWlLk6GJQsqaUBKTNV-1" source="4E5PTwEwFtYt5vo8ySH1-5" target="4E5PTwEwFtYt5vo8ySH1-3">
          <mxGeometry relative="1" as="geometry" />
        </mxCell>
        <mxCell id="4E5PTwEwFtYt5vo8ySH1-5" value="Proses Perhitungan &lt;i style=&quot;font-size: 10px;&quot;&gt;Sequentidal Training SVM&lt;/i&gt;" style="rounded=0;whiteSpace=wrap;html=1;fontSize=10;" vertex="1" parent="WIyWlLk6GJQsqaUBKTNV-1">
          <mxGeometry x="165" y="315" width="120" height="47" as="geometry" />
        </mxCell>
        <mxCell id="4E5PTwEwFtYt5vo8ySH1-17" value="" style="edgeStyle=orthogonalEdgeStyle;rounded=0;orthogonalLoop=1;jettySize=auto;html=1;" edge="1" parent="WIyWlLk6GJQsqaUBKTNV-1" source="4E5PTwEwFtYt5vo8ySH1-6" target="WIyWlLk6GJQsqaUBKTNV-3">
          <mxGeometry relative="1" as="geometry" />
        </mxCell>
        <mxCell id="4E5PTwEwFtYt5vo8ySH1-6" value="Hasil Klasifikasi" style="shape=parallelogram;perimeter=parallelogramPerimeter;whiteSpace=wrap;html=1;fixedSize=1;fontSize=10;" vertex="1" parent="WIyWlLk6GJQsqaUBKTNV-1">
          <mxGeometry x="160" y="458" width="130" height="40" as="geometry" />
        </mxCell>
        <mxCell id="4E5PTwEwFtYt5vo8ySH1-12" value="" style="edgeStyle=orthogonalEdgeStyle;rounded=0;orthogonalLoop=1;jettySize=auto;html=1;" edge="1" parent="WIyWlLk6GJQsqaUBKTNV-1" source="4E5PTwEwFtYt5vo8ySH1-7" target="4E5PTwEwFtYt5vo8ySH1-0">
          <mxGeometry relative="1" as="geometry" />
        </mxCell>
        <mxCell id="4E5PTwEwFtYt5vo8ySH1-7" value="Mulai" style="rounded=1;whiteSpace=wrap;html=1;fontSize=10;glass=0;strokeWidth=1;shadow=0;" vertex="1" parent="WIyWlLk6GJQsqaUBKTNV-1">
          <mxGeometry x="160" y="90" width="130" height="40" as="geometry" />
        </mxCell>
      </root>
    </mxGraphModel>
  </diagram>
</mxfile>
